<svg width="102" height="102" viewBox="0 0 102 102" fill="none" xmlns="http://www.w3.org/2000/svg">
<circle cx="50.8001" cy="51.3778" r="50.6222" fill="#849994"/>
<g clip-path="url(#clip0_9_80)">
<path d="M76.2462 16.0083H24.5985C20.7103 16.0083 17.5557 19.1494 17.5557 23.0208V74.4459C17.5557 78.3174 20.7103 81.4584 24.5985 81.4584H76.2462C80.1344 81.4584 83.289 78.3174 83.289 74.4459V23.0208C83.289 19.1494 80.1344 16.0083 76.2462 16.0083ZM53.3275 67.0535C53.3275 73.4232 49.5713 76.3305 44.0984 76.3305C39.1538 76.3305 36.2926 73.7884 34.8253 70.7059L39.858 67.6817C40.8264 69.391 41.7068 70.8373 43.8343 70.8373C45.8592 70.8373 47.1503 70.0484 47.1503 66.9659V46.0598H53.3275V67.0535V67.0535ZM67.9414 76.3305C62.2045 76.3305 58.4923 73.6131 56.6875 70.0484L61.7203 67.1558C63.0408 69.3034 64.7722 70.8958 67.8094 70.8958C70.3624 70.8958 72.0058 69.6248 72.0058 67.857C72.0058 65.7533 70.3331 65.0082 67.5013 63.7664L65.9606 63.109C61.5002 61.2244 58.551 58.843 58.551 53.832C58.551 49.2155 62.0871 45.7092 67.5893 45.7092C71.5216 45.7092 74.3387 47.0679 76.3635 50.6326L71.5509 53.7005C70.4945 51.8159 69.35 51.0709 67.5746 51.0709C65.7699 51.0709 64.6254 52.2104 64.6254 53.7005C64.6254 55.5413 65.7699 56.2864 68.4256 57.4405L69.9663 58.098C75.2191 60.3332 78.1683 62.6269 78.1683 67.7694C78.1683 73.2917 73.7958 76.3305 67.9414 76.3305V76.3305Z" fill="white"/>
</g>
<defs>
<clipPath id="clip0_9_80">
<rect width="65.7333" height="74.8" fill="white" transform="translate(17.5557 11.3333)"/>
</clipPath>
</defs>
</svg>
