<svg width="90" height="111" viewBox="0 0 90 111" fill="none" xmlns="http://www.w3.org/2000/svg">
<path fill-rule="evenodd" clip-rule="evenodd" d="M12.168 75.645C16.8807 77.6499 22.0183 78.6523 27.5809 78.6523C31.7528 78.6523 35.4998 78.1125 38.8218 77.033C42.1439 75.8763 44.9638 74.3341 47.2815 72.4064C49.5992 70.4015 51.3761 68.0882 52.6123 65.4665C53.8484 62.8447 54.4664 60.0302 54.4664 57.0229C54.4664 54.247 54.0029 51.818 53.0758 49.736C52.226 47.5769 51.0285 45.7263 49.4833 44.1841C49.1833 43.8531 48.8704 43.5318 48.5446 43.2202H55.2342V111H64.9686V43.2202H90V35.1237H33.8426L27.0014 32.1549L22.1342 30.0729C20.5118 29.3789 19.0439 28.5693 17.7306 27.644C16.4944 26.6415 15.4515 25.5234 14.6016 24.2897C13.8291 22.9788 13.4428 21.3981 13.4428 19.5474C13.4428 16.0775 14.7948 13.3786 17.4988 11.4509C20.2028 9.44599 23.7566 8.44356 28.1603 8.44356C32.1004 8.44356 35.577 9.09899 38.5901 10.4099C41.6031 11.6436 44.3457 13.3786 46.818 15.6148L51.917 9.36888C49.1357 6.59292 45.7364 4.35672 41.719 2.6603C37.7016 0.886766 33.2979 0 28.508 0C24.8769 0 21.5162 0.501216 18.4259 1.50365C15.4128 2.50608 12.7861 3.93262 10.5456 5.78326C8.38242 7.55679 6.68276 9.67732 5.44664 12.1448C4.21053 14.6124 3.59247 17.2727 3.59247 20.1257C3.59247 22.9017 4.09464 25.3692 5.09899 27.5283C6.10333 29.6103 7.37808 31.4224 8.92323 32.9646C10.5456 34.5068 12.3226 35.8176 14.254 36.8972C16.1854 37.9767 18.1169 38.902 20.0483 39.6731L30.9416 44.4154C32.873 45.2636 34.6499 46.0733 36.2723 46.8444C37.972 47.6155 39.4399 48.5023 40.676 49.5047C41.9121 50.5071 42.8778 51.7023 43.5732 53.0903C44.2685 54.4783 44.6161 56.1747 44.6161 58.1796C44.6161 61.7266 43.1482 64.6183 40.2125 66.8545C37.3539 69.0907 33.2979 70.2087 28.0444 70.2087C23.6408 70.2087 19.5461 69.3605 15.7605 67.6641C11.9749 65.8906 8.65283 63.5773 5.7943 60.7242L0 67.4328C3.47658 70.9027 7.53259 73.6402 12.168 75.645ZM33.8426 35.1237H30.2028V43.2202H48.5446C47.2762 42.0071 45.8122 40.9404 44.1526 40.0201C42.1439 38.7864 39.9807 37.7068 37.663 36.7815L33.8426 35.1237Z" fill="black"/>
</svg>
