<svg width="102" height="102" viewBox="0 0 102 102" fill="none" xmlns="http://www.w3.org/2000/svg">
<circle cx="50.9779" cy="50.6222" r="50.6222" fill="#849994"/>
<path d="M35.4856 56.3706H47.7875C48.7049 56.3706 49.9507 58.4769 51.7831 59.779V58.2803C51.7831 58.2803 51.7241 57.3917 52.0769 56.8541C52.4347 56.3149 53.1809 56.1714 53.4138 56.1714H65.7157C65.7157 56.1714 69.4303 55.547 73.5601 53.6027L28.156 54.0364C32.074 55.7934 35.4856 56.3706 35.4856 56.3706Z" fill="white"/>
<path d="M22.636 55.6913C22.331 55.459 22.0323 55.2184 21.7405 54.9698C21.9489 55.3039 22.2545 55.563 22.636 55.6913Z" fill="white"/>
<path d="M24.8896 22.3159H76.1294V52.2871C77.9255 51.2913 78.8902 50.6128 79.5511 50.1782V20.6003C79.5507 20.1462 79.37 19.7109 79.0487 19.39C78.7274 19.0691 78.2918 18.8889 77.8377 18.8889H23.1762C22.2283 18.8889 21.4603 19.6568 21.4603 20.6003V50.2542C22.111 50.6643 23.0454 51.352 24.8896 52.3807V22.3159Z" fill="white"/>
<path d="M82.4976 49.6719C82.0562 49.32 81.4451 49.3217 80.4753 49.6719C80.1926 49.7748 79.9065 49.9461 79.5511 50.1782C78.8902 50.6128 77.9255 51.2913 76.1294 52.2871C75.5749 52.5909 74.9705 52.9183 74.2379 53.2854C74.0083 53.4001 73.7872 53.493 73.5601 53.6027C69.4303 55.547 65.7157 56.1714 65.7157 56.1714H53.4138C53.1809 56.1714 52.4347 56.3157 52.0769 56.855C51.7241 57.3934 51.7831 58.2803 51.7831 58.2803V59.779C52.2271 60.0938 52.6964 60.3765 53.2138 60.5545C56.9225 61.8187 59.4318 60.7166 60.5265 59.1807C61.8069 57.3799 62.4585 56.3714 63.8647 56.898C65.2708 57.4246 63.8647 60.8474 62.1091 62.6052C60.3493 64.3638 58.24 65.7689 55.2555 65.7689C54.0013 65.7689 52.7859 65.5807 51.7831 65.3672V78.1359C51.7831 81.7393 55.6134 83.665 58.2468 83.665C60.8793 83.665 66.1529 82.173 68.7019 75.8481C71.2483 69.525 68.5288 61.1807 68.5288 61.1807C68.5288 61.1807 72.6545 59.3318 76.9616 56.6119C81.2645 53.8904 82.4099 51.3411 82.4976 50.9833C82.582 50.6229 82.9332 50.0246 82.4976 49.6719Z" fill="white"/>
<path d="M62.1091 62.6052C63.8647 60.8474 65.2708 57.4246 63.8647 56.898C62.4585 56.3714 61.8069 57.3799 60.5265 59.1807C59.4318 60.7166 56.9225 61.8187 53.2138 60.5545C52.6964 60.3765 52.2271 60.0938 51.7831 59.779C49.9507 58.4769 48.7049 56.3706 47.7875 56.3706H35.4856C35.4856 56.3706 32.0732 55.7934 28.156 54.0364C27.7627 53.8592 27.3668 53.6837 26.9651 53.482C26.2647 53.1309 25.5727 52.7643 24.8896 52.3807C23.0454 51.352 22.111 50.6643 21.4603 50.2542C21.1893 50.0828 20.9597 49.9537 20.7251 49.8694C19.7595 49.5183 19.1442 49.5183 18.7045 49.8694C18.2673 50.2221 18.6167 50.8212 18.7045 51.1799C18.772 51.4542 19.4751 53.0229 21.7396 54.9689C22.5295 55.6398 23.3651 56.2548 24.2405 56.8094C28.5434 59.5326 32.6733 61.3765 32.6733 61.3765C32.6733 61.3765 29.9496 69.7191 32.5003 76.0439C35.0476 82.3679 40.3186 83.8667 42.9537 83.8667C45.5896 83.8667 49.4198 81.9283 49.4198 78.3275V64.7149C49.4198 64.7149 50.3922 65.0693 51.7823 65.3655C52.785 65.579 54.0004 65.7672 55.2547 65.7672C58.24 65.768 60.3493 64.3638 62.1091 62.6052Z" fill="white"/>
<path d="M59.8994 38.1977C57.872 38.1979 55.9276 39.0032 54.4939 40.4364C53.0602 41.8697 52.2546 43.8136 52.2541 45.8407C52.2541 50.0592 55.6767 53.4828 59.8994 53.4828C64.1179 53.4828 67.5396 50.0592 67.5396 45.8407C67.5396 41.6213 64.1179 38.1977 59.8994 38.1977Z" fill="white"/>
<path d="M41.7754 38.1977C37.5552 38.1977 34.1343 41.6213 34.1343 45.8407C34.1343 50.0592 37.5544 53.4828 41.7754 53.4828C45.9981 53.4828 49.4207 50.0592 49.4207 45.8407C49.4207 41.6213 45.9981 38.1977 41.7754 38.1977Z" fill="white"/>
<path d="M65.8814 57.1576L65.7991 57.1714H65.7157H65.3284C65.3801 57.3393 65.4114 57.5096 65.4263 57.674C65.4832 58.2982 65.3364 58.9849 65.1175 59.6171C64.675 60.8949 63.8058 62.3214 62.8166 63.3118L62.1091 62.6052L62.816 63.3125C62.5834 63.5449 62.3433 63.7732 62.0944 63.9948C60.3536 65.5453 58.1887 66.7689 55.2555 66.7689C54.3905 66.7689 53.5498 66.6859 52.7831 66.5679V78.1359C52.7831 79.5386 53.5162 80.6468 54.614 81.4418C55.7307 82.2506 57.1415 82.665 58.2468 82.665C60.5711 82.665 65.4119 81.3361 67.7743 75.4746C68.9538 72.5456 68.9315 69.0793 68.5781 66.2679C68.4031 64.8756 68.1508 63.6733 67.9425 62.8205C67.8385 62.3947 67.7458 62.0574 67.6799 61.8288C67.6469 61.7145 67.6207 61.6275 67.603 61.5703C67.598 61.5537 67.5936 61.5397 67.59 61.5282C67.5874 61.5198 67.5851 61.5128 67.5833 61.5071L67.5788 61.4929L67.578 61.4906L67.5779 61.4902L67.5779 61.49L67.2995 60.6358L65.8814 57.1576ZM65.8814 57.1576L65.7157 56.1714C65.8814 57.1576 65.8816 57.1576 65.8818 57.1575L65.8822 57.1575L65.8834 57.1573L65.8867 57.1567L65.8973 57.1549L65.9345 57.1483C65.9663 57.1426 66.0118 57.1343 66.0704 57.1232C66.1874 57.1009 66.3565 57.0673 66.5712 57.0211C67.0004 56.9286 67.6125 56.7853 68.3555 56.5801C69.7928 56.183 71.7309 55.551 73.7865 54.6006L73.7936 54.6005L73.9861 54.5074L73.9952 54.5031C74.0841 54.4601 74.1719 54.4201 74.2716 54.3746L74.3132 54.3557C74.4264 54.304 74.5531 54.2458 74.685 54.1798L74.6859 54.1794C75.4349 53.8041 76.0519 53.4697 76.6099 53.1641L76.6143 53.1616L77.1294 52.8795V52.872C77.6835 52.556 78.1516 52.2739 78.5511 52.0244V52.0257L78.5961 51.9963C79.089 51.6875 79.4759 51.4295 79.791 51.2193C79.9022 51.1451 80.0045 51.0769 80.0994 51.0145C80.4519 50.7843 80.653 50.6716 80.8166 50.6118C81.2047 50.4718 81.4616 50.42 81.6286 50.4103C81.6158 50.4476 81.6013 50.4903 81.5891 50.5275C81.5699 50.5864 81.5463 50.6624 81.5266 50.7444L65.8814 57.1576ZM18.7045 51.1799L19.6755 50.9408C19.6739 50.9345 19.6758 50.9389 19.6821 50.9535C19.7132 51.0262 19.8526 51.3512 20.2183 51.8753C20.636 52.474 21.3203 53.2898 22.3891 54.2086C22.6665 54.4441 22.9497 54.6724 23.2386 54.8932C23.2397 54.8941 23.2408 54.8949 23.2418 54.8957C23.7371 55.2742 24.2489 55.6309 24.7757 55.9647C26.8933 57.3048 28.9727 58.4312 30.525 59.2234C31.3004 59.6191 31.9423 59.9304 32.3891 60.1422C32.6125 60.2481 32.787 60.3291 32.9049 60.3832C32.9638 60.4103 33.0086 60.4307 33.0383 60.4441L33.0713 60.459L33.0791 60.4625L33.0808 60.4633L33.081 60.4634L18.6275 50.936C18.6581 51.0245 18.6867 51.1071 18.7045 51.1799ZM18.7045 51.1799L19.6758 50.9422C19.6552 50.8581 19.6302 50.7796 19.6102 50.7194C19.5989 50.6855 19.5846 50.6439 19.5721 50.6076C19.7391 50.6168 19.9963 50.6684 20.3834 50.8092L20.3867 50.8103C20.5156 50.8567 20.6706 50.938 20.9258 51.0994L20.9271 51.1002M18.7045 51.1799L20.9271 51.1002M20.9271 51.1002C20.9347 51.105 20.9424 51.1098 20.9501 51.1147M20.9271 51.1002L21.4603 49.1005C21.647 49.1946 21.8236 49.3008 21.994 49.4085C22.1405 49.5008 22.2935 49.6015 22.4603 49.7121M22.4603 49.7121V50.2542V52.0696L20.9501 51.1147M22.4603 49.7121C22.504 49.7411 22.5486 49.7708 22.5943 49.8012C22.9442 50.0338 23.3569 50.3081 23.8896 50.6367V22.3159V21.3159H24.8896H76.1294H77.1294V22.3159V50.5515C77.723 50.1903 78.1777 49.8907 78.5511 49.6421V20.6013C78.5509 20.4123 78.4757 20.2312 78.342 20.0976C78.2082 19.964 78.0269 19.8889 77.8377 19.8889H23.1762C22.7788 19.8889 22.4603 20.2109 22.4603 20.6003V49.7121ZM20.9501 51.1147C21.0893 51.2031 21.2507 51.3103 21.4397 51.436C21.9836 51.7977 22.7565 52.3116 23.8896 52.9635M20.9501 51.1147L23.8896 52.9635M23.8896 52.9635V52.9661L24.1805 53.1294C24.2527 53.1702 24.3263 53.2116 24.4012 53.2534C24.4016 53.2536 24.402 53.2538 24.4024 53.2541L24.8896 52.3807C25.5727 52.7643 26.2647 53.1309 26.9651 53.482M23.8896 52.9635L27.7468 54.9488L27.7452 54.9482C27.7035 54.9294 27.6614 54.9104 27.6189 54.8913C27.2693 54.7341 26.8954 54.5659 26.5164 54.3757M26.9651 53.482L26.5164 54.3757M26.9651 53.482C27.3236 53.662 27.6774 53.8211 28.029 53.9792L28.029 53.9793L28.0293 53.9794L28.156 54.0364L26.5164 54.3757M26.9651 53.482L26.5169 54.376C26.5168 54.3759 26.5166 54.3758 26.5164 54.3757M68.1199 60.2681L68.1198 60.2682L81.522 50.7546C81.4875 50.8369 81.2497 51.4048 80.5359 52.2785C79.772 53.2135 78.4922 54.4606 76.4271 55.7668C74.3069 57.1056 72.2271 58.2326 70.675 59.0258C69.8997 59.422 69.2581 59.7339 68.8115 59.9461C68.5882 60.0523 68.4138 60.1334 68.296 60.1877C68.237 60.2149 68.1923 60.2353 68.1626 60.2488L68.1295 60.2638L68.1217 60.2673L68.12 60.2681L68.1199 60.2681ZM65.6963 55.1584C65.6697 55.1635 65.6466 55.1678 65.6271 55.1714H53.4138C53.1572 55.1714 52.7876 55.2366 52.4235 55.381C52.054 55.5275 51.5753 55.8014 51.2436 56.3012L51.2408 56.3054C50.9573 56.7375 50.8547 57.2355 50.8129 57.577C50.6659 57.4248 50.5209 57.2715 50.3768 57.1191C50.3067 57.0449 50.2368 56.971 50.167 56.8976C49.8436 56.5573 49.4997 56.2041 49.1628 55.9368C48.8545 55.692 48.3746 55.3706 47.7875 55.3706H35.5747C35.5584 55.3676 35.5396 55.364 35.5184 55.36C35.4245 55.3421 35.2834 55.3142 35.1006 55.2751C34.7966 55.21 34.3779 55.114 33.8704 54.9819L67.8032 54.6577C67.1102 54.8487 66.5427 54.9813 66.15 55.0659C65.9519 55.1086 65.7985 55.139 65.6963 55.1584ZM52.7794 58.1328C52.7794 58.0955 52.7802 58.0497 52.7829 57.9984C52.7849 57.9586 52.788 57.9156 52.7926 57.8705C52.8165 57.635 52.8685 57.4736 52.9116 57.4057C52.9392 57.3657 53.0129 57.2994 53.1615 57.2403C53.2305 57.2129 53.299 57.1939 53.3556 57.1825C53.398 57.1739 53.4216 57.1718 53.4247 57.1714H60.7644C60.4632 57.54 60.1677 57.9573 59.8685 58.3798C59.8164 58.4534 59.7642 58.5271 59.7118 58.6008C58.933 59.6929 56.9329 60.7652 53.5379 59.6085C53.286 59.5217 53.0377 59.3978 52.7831 59.2426V58.2803H51.7841L52.3202 58.2446C52.7809 58.214 52.7809 58.2142 52.781 58.2144L52.781 58.2146L52.781 58.2148L52.781 58.2154L52.7806 58.2045C52.7801 58.19 52.7794 58.1653 52.7794 58.1328ZM35.3185 57.3565L35.3185 57.3565C35.3187 57.3566 35.3188 57.3566 35.4856 56.3706V56.3707V57.3706H47.7254C47.7528 57.3849 47.8156 57.4208 47.9195 57.5033C48.1315 57.6716 48.3856 57.9264 48.7174 58.2754C48.7839 58.3455 48.853 58.4187 48.9244 58.4944C49.5255 59.1316 50.2976 59.9502 51.2039 60.5942L51.2048 60.5948C51.6845 60.9349 52.2426 61.2779 52.8884 61.5001L52.8911 61.5011C56.9121 62.8716 59.9301 61.7404 61.3408 59.7611L61.3415 59.7602L61.4052 59.6706C62.0497 58.7639 62.427 58.2331 62.7848 57.938C62.9397 57.8102 63.0376 57.7756 63.1017 57.7644C63.1567 57.7548 63.2553 57.7505 63.4287 57.8051C63.4307 57.8187 63.4328 57.8354 63.4346 57.8554C63.4547 58.076 63.4039 58.4536 63.2276 58.9626C62.8797 59.9673 62.1681 61.1309 61.4018 61.8983C61.1944 62.1055 60.9837 62.3058 60.7687 62.4976C59.2629 63.8408 57.5451 64.7678 55.2549 64.7672H55.2547C54.095 64.7672 52.9541 64.5926 51.9907 64.3874C51.3278 64.2462 50.7644 64.091 50.3683 63.9716C50.1706 63.912 50.0155 63.8616 49.9114 63.8268C49.8595 63.8093 49.8203 63.7958 49.7951 63.7869L49.7678 63.7773L49.7623 63.7753L49.7621 63.7753L49.762 63.7752L49.7618 63.7751L49.7616 63.7751L48.4198 63.286V64.7149V78.3275C48.4198 79.7292 47.6864 80.8402 46.5876 81.6382C45.47 82.4499 44.0589 82.8667 42.9537 82.8667C40.6279 82.8667 35.7889 81.5319 33.4278 75.6703L33.4277 75.6699C32.2463 72.7403 32.2686 69.2743 32.6224 66.4633C32.7977 65.0711 33.0504 63.869 33.2589 63.0164C33.3631 62.5907 33.4559 62.2535 33.5219 62.0249C33.5549 61.9107 33.5812 61.8237 33.5989 61.7665C33.6077 61.7379 33.6144 61.7167 33.6186 61.7034L33.6232 61.6891L33.6239 61.6868L33.624 61.6865L33.6241 61.6863L33.9035 60.8306L33.0811 60.4634L35.3185 57.3565ZM81.7118 50.1255C81.7118 50.1255 81.7117 50.1264 81.7115 50.1283L81.7118 50.1255ZM19.4887 50.3248C19.4888 50.3248 19.4889 50.3258 19.489 50.3276L19.4887 50.3248ZM28.1236 55.115C29.9983 55.928 31.7351 56.4771 33.0282 56.8275C33.7188 57.0147 34.2853 57.1459 34.6819 57.2308C34.8803 57.2733 35.0364 57.3042 35.1444 57.3247C35.1882 57.3331 35.2242 57.3397 35.2519 57.3447C35.2583 57.3459 35.2642 57.347 35.2697 57.348L28.1236 55.115ZM63.4171 57.7511C63.4171 57.751 63.4176 57.7521 63.4185 57.7547C63.4175 57.7525 63.417 57.7512 63.4171 57.7511ZM55.2009 41.1437C56.4471 39.8979 58.1371 39.1979 59.8994 39.1977L53.2541 45.8407C53.2546 44.0789 53.9548 42.3894 55.2009 41.1437ZM52.7812 58.218L52.7812 58.218L52.7812 58.2182C52.7812 58.2183 52.7812 58.2184 52.7812 58.2185C52.7812 58.2188 52.7812 58.2186 52.7812 58.218ZM59.8995 39.1977C63.5653 39.1977 66.5396 42.1732 66.5396 45.8407C66.5396 49.5073 63.5653 52.4828 59.8994 52.4828C56.2289 52.4828 53.2542 49.5069 53.2541 45.8409L59.8995 39.1977ZM35.1343 45.8407C35.1343 42.1732 38.1079 39.1977 41.7754 39.1977C45.4459 39.1977 48.4207 42.1737 48.4207 45.8407C48.4207 49.5068 45.446 52.4828 41.7754 52.4828C38.107 52.4828 35.1343 49.5073 35.1343 45.8407Z" stroke="#FFFEFE" stroke-opacity="0.14" stroke-width="2"/>
</svg>
