<svg width="164" height="164" viewBox="0 0 164 164" fill="none" xmlns="http://www.w3.org/2000/svg">
<path d="M25.8984 69.495C25.6539 69.4166 25.3911 69.4166 25.1467 69.495L23.78 71.34H47.8334C47.9689 71.3207 48.0991 71.2745 48.2165 71.2041C48.3339 71.1337 48.4359 71.0405 48.5167 70.93L49.6784 69.1533V68.8117L25.8984 69.495Z" fill="#F4F3EF"/>
<path d="M15.8534 75.5767C15.7346 75.5259 15.6068 75.4998 15.4776 75.4998C15.3484 75.4998 15.2206 75.5259 15.1018 75.5767L13.7351 77.3533V77.695H45.1684C45.3015 77.7025 45.4335 77.6666 45.5444 77.5927C45.6553 77.5187 45.7392 77.4108 45.7834 77.285L46.3301 75.7133V75.3033L15.8534 75.5767Z" fill="#F4F3EF"/>
<path d="M31.4332 82C31.2953 82.0104 31.1617 82.0529 31.043 82.1241C30.9244 82.1953 30.824 82.2932 30.7499 82.41L29.8616 84.05V84.46H44.5532C44.6751 84.4455 44.7885 84.3905 44.8753 84.3037C44.962 84.217 45.0171 84.1035 45.0316 83.9817V82.41C45.0316 82.41 45.0316 81.9317 44.6216 81.9317L31.4332 82Z" fill="#F4F3EF"/>
<path d="M140.698 61.0217C137.923 59.2081 134.81 57.971 131.547 57.3841C128.284 56.7971 124.935 56.8723 121.702 57.605C118.018 58.1308 114.477 59.3869 111.285 61.2996C108.093 63.2122 105.316 65.743 103.115 68.7433C101.085 71.3157 99.5343 74.2321 98.5367 77.3533H77.08C76.7272 77.3438 76.3801 77.4438 76.0864 77.6396C75.7928 77.8354 75.5669 78.1173 75.44 78.4467C74.4833 80.155 72.9117 83.64 72.0233 85.69C71.135 87.74 72.0233 87.6717 73.2533 87.6717H86.1C85.5738 88.5374 84.9798 89.36 84.3233 90.1317C82.983 91.7772 81.2417 93.0501 79.2671 93.828C77.2925 94.6059 75.1509 94.8625 73.0483 94.5733C70.531 94.2246 68.2269 92.971 66.5668 91.0468C64.9067 89.1226 64.0043 86.6596 64.0283 84.1183C63.9342 81.5929 64.5183 79.0883 65.7201 76.8651C66.9218 74.6419 68.6972 72.7813 70.8617 71.4767C72.5904 70.2144 74.6327 69.4512 76.7656 69.2704C78.8986 69.0897 81.0401 69.4983 82.9567 70.4517C84.1523 71.0624 85.2013 71.925 86.0317 72.98C86.92 74.005 86.9883 73.9367 88.0133 73.6633L99.1517 70.725C99.9717 70.725 100.245 70.1783 99.835 69.6317C98.2767 65.7782 95.5837 62.4895 92.1133 60.2017C89.5418 58.5082 86.6549 57.3509 83.6257 56.799C80.5964 56.2472 77.4869 56.3121 74.4833 56.99C67.0166 58.225 60.3119 62.287 55.76 68.3333C53.5716 71.0401 51.9482 74.1582 50.9857 77.5033C50.0233 80.8483 49.7414 84.3524 50.1567 87.8083C50.4309 90.7144 51.3226 93.5284 52.7721 96.0621C54.2216 98.5958 56.1955 100.791 58.5617 102.5C61.0959 104.402 63.9867 105.776 67.0623 106.539C70.1379 107.302 73.3355 107.439 76.465 106.942C80.2708 106.49 83.9418 105.256 87.2467 103.315C90.5515 101.375 93.4184 98.7704 95.6667 95.6667C96.7445 94.1851 97.6824 92.6067 98.4683 90.9517C99.5773 95.1122 101.968 98.818 105.302 101.543C109.858 105.363 115.62 107.445 121.565 107.42C123.273 107.42 125.05 107.42 126.895 106.805C132.936 105.612 138.482 102.637 142.817 98.2633C145.791 95.4156 148.03 91.8879 149.339 87.9836C150.648 84.0793 150.99 79.9154 150.333 75.85C149.936 72.816 148.864 69.9094 147.197 67.3435C145.53 64.7776 143.309 62.6175 140.698 61.0217ZM128.535 93.3433C126.875 94.2348 125.033 94.7352 123.15 94.8062C121.267 94.8773 119.393 94.5172 117.67 93.7533C115.345 92.6971 113.46 90.8648 112.338 88.5708C111.216 86.2768 110.927 83.6638 111.52 81.18C112.056 78.3263 113.437 75.6994 115.484 73.6402C117.531 71.581 120.15 70.1844 123 69.6317C124.48 69.2175 126.031 69.1222 127.551 69.3519C129.071 69.5816 130.525 70.1312 131.817 70.9644C133.108 71.7975 134.208 72.8952 135.045 74.1851C135.881 75.4749 136.433 76.9274 136.667 78.4467C136.707 79.175 136.707 79.905 136.667 80.6333C136.617 83.2962 135.831 85.8935 134.396 88.1369C132.961 90.3804 130.932 92.1825 128.535 93.3433V93.3433Z" fill="#F4F3EF"/>
</svg>
