<svg width="125" height="125" viewBox="0 0 125 125" fill="none" xmlns="http://www.w3.org/2000/svg">
<path d="M75.4062 77.5156C71.4905 77.8975 67.5458 77.1796 64.0156 75.4427C63.2155 74.8032 62.555 74.0064 62.0749 73.1017C61.5947 72.1969 61.3051 71.2033 61.224 70.1823C61.2226 70.0296 61.191 69.8786 61.131 69.7382C61.071 69.5977 60.9837 69.4705 60.8743 69.364C60.7648 69.2575 60.6354 69.1737 60.4933 69.1174C60.3513 69.0612 60.1996 69.0337 60.0469 69.0365C58.3976 69.0197 56.7482 69.0197 55.099 69.0365C54.8113 69.0072 54.5237 69.0925 54.2985 69.2738C54.0733 69.4551 53.9286 69.7179 53.8958 70.0052C53.8024 71.796 54.1054 73.5854 54.7834 75.2456C55.4613 76.9058 56.4974 78.3958 57.8177 79.6094C61.1511 82.2126 65.1993 83.7371 69.4219 83.9792C73.8216 84.4886 78.2742 84.2988 82.6146 83.4167C85.9469 82.7953 89.0021 81.1493 91.3542 78.7083C92.6547 77.1051 93.5263 75.1976 93.8871 73.165C94.2479 71.1324 94.086 69.0414 93.4167 67.0885C92.8553 65.7118 91.986 64.482 90.8755 63.4934C89.765 62.5048 88.4429 61.7837 87.0104 61.3854C80.3437 59.0417 73.1354 59.224 66.3333 57.4427C65.151 57.0781 63.7083 56.6719 63.1823 55.4219C62.8781 54.5422 62.8572 53.5893 63.1225 52.6972C63.3878 51.805 63.926 51.0184 64.6615 50.4479C66.7985 49.2262 69.2323 48.6205 71.6927 48.6979C75.027 48.3854 78.3879 48.8673 81.5 50.1042C82.4356 50.6542 83.2402 51.4012 83.8581 52.2934C84.476 53.1856 84.8923 54.2016 85.0781 55.2708C85.0866 55.5871 85.2133 55.8886 85.4331 56.1161C85.6529 56.3436 85.9499 56.4806 86.2656 56.5C87.901 56.5312 89.5365 56.5052 91.1771 56.5104C91.4609 56.5438 91.7473 56.4737 91.9836 56.3129C92.2199 56.1522 92.3903 55.9117 92.4635 55.6354C92.4778 53.427 91.9148 51.2532 90.8304 49.3292C89.7461 47.4053 88.1779 45.7981 86.2813 44.6667C81.0475 42.2504 75.238 41.3604 69.5208 42.099C65.3318 42.2715 61.3299 43.8808 58.1875 46.6562C56.7457 48.2115 55.7694 50.1403 55.3698 52.2231C54.9702 54.3059 55.1633 56.459 55.9271 58.4375C56.5219 59.7632 57.397 60.9441 58.4922 61.899C59.5873 62.8539 60.8765 63.56 62.2708 63.9687C68.9219 66.3698 76.2083 65.599 82.9167 67.724C84.2292 68.1667 85.75 68.849 86.151 70.3021C86.3664 71.1747 86.3499 72.0884 86.1032 72.9527C85.8566 73.8169 85.3883 74.6017 84.7448 75.2292C81.9538 76.9639 78.6829 77.7647 75.4062 77.5156V77.5156ZM105.714 33.5312C92.7344 26.191 79.75 18.8559 66.7604 11.526C65.4577 10.7975 63.99 10.415 62.4974 10.415C61.0048 10.415 59.5371 10.7975 58.2344 11.526L19.4271 33.4427C18.1681 34.1277 17.1154 35.137 16.3782 36.3661C15.6409 37.5952 15.246 38.9991 15.2344 40.4323V84.5729C15.2557 86.0327 15.6717 87.4595 16.4383 88.702C17.2049 89.9445 18.2934 90.9563 19.5885 91.6302C23.3021 93.651 26.9115 95.8802 30.6979 97.7708C32.8817 98.9377 35.307 99.5805 37.782 99.6483C40.2571 99.7161 42.714 99.2071 44.9583 98.1615C46.6381 97.1098 48.005 95.6267 48.9165 93.8669C49.828 92.1071 50.2507 90.135 50.1406 88.1562C50.1667 73.5885 50.1406 59.0208 50.151 44.4583C50.1769 44.2989 50.1688 44.1358 50.1272 43.9797C50.0856 43.8236 50.0114 43.6781 49.9096 43.5527C49.8078 43.4272 49.6806 43.3248 49.5364 43.252C49.3922 43.1792 49.2343 43.1377 49.0729 43.1302C47.4185 43.1112 45.7638 43.1112 44.1094 43.1302C43.9567 43.117 43.803 43.1361 43.6582 43.1861C43.5134 43.2362 43.3807 43.3161 43.2688 43.4207C43.1568 43.5253 43.0681 43.6522 43.0083 43.7933C42.9486 43.9343 42.9191 44.0864 42.9219 44.2396C42.901 58.7135 42.9271 73.1875 42.9115 87.6667C42.9145 88.6658 42.6117 89.642 42.0438 90.4641C41.4758 91.2862 40.67 91.9148 39.7344 92.2656C38.6576 92.584 37.5258 92.6716 36.4129 92.5226C35.3 92.3736 34.2311 91.9914 33.276 91.401L22.9531 85.5677C22.7249 85.46 22.5351 85.285 22.4094 85.0661C22.2836 84.8473 22.228 84.5952 22.25 84.3437V40.6615C22.2264 40.3784 22.2927 40.0951 22.4395 39.8519C22.5864 39.6088 22.8062 39.4182 23.0677 39.3073C35.9601 32.0434 48.8507 24.7743 61.7396 17.5C61.9634 17.3464 62.2285 17.2641 62.5 17.2641C62.7715 17.2641 63.0366 17.3464 63.2604 17.5L101.938 39.3021C102.197 39.4157 102.414 39.6071 102.56 39.8497C102.705 40.0923 102.772 40.3741 102.75 40.6562V84.3437C102.772 84.5966 102.717 84.8502 102.593 85.0714C102.468 85.2926 102.28 85.471 102.052 85.5833C89.3576 92.7639 76.6545 99.934 63.9427 107.094C63.3385 107.427 62.6198 107.974 61.9115 107.562C58.5781 105.677 55.2969 103.719 51.974 101.818C51.8043 101.688 51.5996 101.611 51.3861 101.598C51.1727 101.585 50.9602 101.636 50.776 101.745C49.315 102.602 47.7771 103.32 46.1823 103.891C45.4635 104.182 44.5781 104.266 44.0833 104.932C44.7157 105.618 45.4813 106.167 46.3333 106.547L57.9792 113.281C59.2636 114.087 60.7405 114.535 62.2564 114.577C63.7723 114.619 65.2717 114.254 66.599 113.521C79.5365 106.229 92.474 98.9305 105.411 91.625C106.705 90.9502 107.792 89.9389 108.558 88.6977C109.325 87.4565 109.742 86.0314 109.766 84.5729V40.4323C109.754 39.0279 109.373 37.6514 108.662 36.4403C107.951 35.2292 106.934 34.2261 105.714 33.5312V33.5312Z" fill="#F4F3EF"/>
</svg>
