<svg width="88" height="87" viewBox="0 0 88 87" fill="none" xmlns="http://www.w3.org/2000/svg">
<path d="M43.1882 0C21.0975 0 22.475 9.628 22.475 9.628L22.5004 19.604H43.5761V22.5983H14.1375C14.1375 22.5983 0 20.9851 0 43.3876C0 65.7901 12.3359 64.9926 12.3359 64.9926H19.6946V54.5998C19.6946 54.5998 19.2995 42.2023 31.8384 42.2023H52.7401C52.7401 42.2023 64.4851 42.3908 64.4851 30.7908V11.6072C64.4851 11.6072 66.265 0 43.1846 0H43.1882ZM31.5665 6.70625C33.6618 6.70625 35.3582 8.41 35.3582 10.5197C35.3582 12.6259 33.6618 14.3296 31.5665 14.3296C29.4676 14.3296 27.7748 12.6259 27.7748 10.5197C27.7748 8.41 29.4676 6.70625 31.5665 6.70625Z" fill="#F4F3EF"/>
<path d="M43.8154 87C65.8989 87 64.5214 77.372 64.5214 77.372L64.496 67.396H43.4203V64.4018H72.8662C72.8662 64.4018 87.0036 66.0149 87.0036 43.6124C87.0036 21.2099 74.6642 22.0074 74.6642 22.0074H67.3054V32.4002C67.3054 32.4002 67.7005 44.7977 55.1617 44.7977H34.2635C34.2635 44.7977 22.5185 44.6092 22.5185 56.2092V75.3928C22.5185 75.3928 20.735 87 43.8154 87ZM55.4372 80.2937C53.3383 80.2937 51.6454 78.59 51.6454 76.4802C51.6454 74.3741 53.3383 72.6704 55.4372 72.6704C57.5324 72.6704 59.2289 74.3741 59.2289 76.4802C59.2289 78.59 57.5324 80.2937 55.4372 80.2937Z" fill="#F4F3EF"/>
</svg>
