<svg width="102" height="102" viewBox="0 0 102 102" fill="none" xmlns="http://www.w3.org/2000/svg">
<circle cx="50.6222" cy="51.3778" r="50.6222" fill="#849994"/>
<g clip-path="url(#clip0_9_81)">
<path d="M50.3339 15.1301C33.1129 15.1301 34.1881 22.6274 34.1881 22.6274L34.2073 30.3949H50.641V32.7269H27.6801C27.6801 32.7269 16.6603 31.4722 16.6603 48.9162C16.6603 66.3608 26.2786 65.7421 26.2786 65.7421H32.0188V57.6472C32.0188 57.6472 31.7093 47.9912 41.4835 47.9912H57.7828C57.7828 47.9912 66.9402 48.1397 66.9402 39.1061V24.1696C66.9402 24.1696 68.331 15.1301 50.3339 15.1301ZM41.2724 20.3536C41.6607 20.3532 42.0453 20.4297 42.4041 20.5788C42.763 20.7278 43.089 20.9464 43.3636 21.2221C43.6382 21.4978 43.856 21.8251 44.0044 22.1853C44.1529 22.5456 44.2291 22.9317 44.2288 23.3216C44.2291 23.7114 44.1529 24.0975 44.0044 24.4578C43.856 24.818 43.6382 25.1454 43.3636 25.421C43.089 25.6967 42.763 25.9153 42.4041 26.0644C42.0453 26.2134 41.6607 26.2899 41.2724 26.2896C40.884 26.2899 40.4994 26.2134 40.1406 26.0644C39.7817 25.9153 39.4557 25.6967 39.1811 25.421C38.9065 25.1454 38.6887 24.818 38.5403 24.4578C38.3918 24.0975 38.3156 23.7114 38.316 23.3216C38.3156 22.9317 38.3918 22.5456 38.5403 22.1853C38.6887 21.8251 38.9065 21.4978 39.1811 21.2221C39.4557 20.9464 39.7817 20.7278 40.1406 20.5788C40.4994 20.4297 40.884 20.3532 41.2724 20.3536V20.3536Z" fill="url(#paint0_linear_9_81)"/>
<path d="M50.8234 82.8781C68.0444 82.8781 66.9691 75.3807 66.9691 75.3807L66.95 67.6135H50.516V65.2815H73.4769C73.4769 65.2815 84.4966 66.5362 84.4966 49.0917C84.4966 31.6474 74.8784 32.2661 74.8784 32.2661H69.1382V40.3607C69.1382 40.3607 69.4477 50.0167 59.6735 50.0167H43.3742C43.3742 50.0167 34.2167 49.8682 34.2167 58.9021V73.8389C34.2167 73.8389 32.8262 82.8781 50.8231 82.8781H50.8234ZM59.8849 77.6551C59.4966 77.6555 59.112 77.5789 58.7531 77.4299C58.3943 77.2809 58.0682 77.0623 57.7936 76.7866C57.519 76.5109 57.3013 76.1836 57.1528 75.8233C57.0044 75.4631 56.9281 75.077 56.9285 74.6871C56.9281 74.2972 57.0043 73.9111 57.1527 73.5508C57.3012 73.1905 57.5189 72.8632 57.7935 72.5875C58.0681 72.3118 58.3942 72.0931 58.753 71.9441C59.1119 71.795 59.4965 71.7185 59.8849 71.7189C60.2732 71.7185 60.6578 71.795 61.0167 71.9441C61.3755 72.0931 61.7016 72.3117 61.9762 72.5874C62.2508 72.8631 62.4685 73.1904 62.617 73.5506C62.7654 73.9109 62.8417 74.297 62.8413 74.6869C62.8417 75.0767 62.7654 75.4628 62.617 75.8231C62.4685 76.1833 62.2508 76.5107 61.9762 76.7863C61.7016 77.062 61.3755 77.2806 61.0167 77.4296C60.6578 77.5787 60.2732 77.6552 59.8849 77.6549V77.6551Z" fill="url(#paint1_linear_9_81)"/>
</g>
<defs>
<linearGradient id="paint0_linear_9_81" x1="23.1793" y1="21.2236" x2="56.927" y2="54.5041" gradientUnits="userSpaceOnUse">
<stop stop-color="white"/>
<stop offset="0.992708" stop-color="white"/>
</linearGradient>
<linearGradient id="paint1_linear_9_81" x1="43.8141" y1="42.6793" x2="80.0487" y2="76.7992" gradientUnits="userSpaceOnUse">
<stop offset="0.0760415" stop-color="white"/>
<stop offset="1" stop-color="white"/>
</linearGradient>
<clipPath id="clip0_9_81">
<rect width="68" height="68" fill="white" transform="translate(16.6223 15.1111)"/>
</clipPath>
</defs>
</svg>
